<svg xmlns="http://www.w3.org/2000/svg" width="48" height="48" viewBox="0 0 48 48">
  <rect width="48" height="48" rx="8" fill="#1a1a2e"/>
  <path d="
    M 12 10
    L 20 10
    C 20 10, 20 6, 24 6
    C 28 6, 28 10, 28 10
    L 36 10
    L 36 18
    C 36 18, 40 18, 40 22
    C 40 26, 36 26, 36 26
    L 36 34
    L 28 34
    C 28 34, 28 38, 24 38
    C 20 38, 20 34, 20 34
    L 12 34
    L 12 26
    C 12 26, 8 26, 8 22
    C 8 18, 12 18, 12 18
    Z
  " fill="#7c6faa" stroke="#a89fd4" stroke-width="1.5"/>
</svg>
